<svg xmlns="http://www.w3.org/2000/svg" xmlns:xlink="http://www.w3.org/1999/xlink" width="500" zoomAndPan="magnify" viewBox="0 0 375 374.999991" height="500" preserveAspectRatio="xMidYMid meet" version="1.0"><defs><clipPath id="78414215e5"><path d="M 86 164 L 291 164 L 291 328.804688 L 86 328.804688 Z M 86 164 " clip-rule="nonzero"/></clipPath><clipPath id="2b462c313a"><path d="M 106 46.054688 L 180 46.054688 L 180 151 L 106 151 Z M 106 46.054688 " clip-rule="nonzero"/></clipPath><clipPath id="3b7864a4af"><path d="M 198 46.054688 L 272 46.054688 L 272 151 L 198 151 Z M 198 46.054688 " clip-rule="nonzero"/></clipPath><clipPath id="29b33e646b"><path d="M 262 117 L 333.242188 117 L 333.242188 204 L 262 204 Z M 262 117 " clip-rule="nonzero"/></clipPath><clipPath id="64d184a82b"><path d="M 41.492188 117 L 114 117 L 114 204 L 41.492188 204 Z M 41.492188 117 " clip-rule="nonzero"/></clipPath></defs><g clip-path="url(#78414215e5)"><path fill="#e2a9f1" d="M 227.644531 328.851562 C 223.601562 328.210938 217.671875 328.082031 212.273438 326.300781 C 195.558594 320.789062 179.378906 322.222656 162.519531 326.613281 C 125.789062 336.199219 93.082031 312.96875 86.949219 276.070312 C 86.542969 273.855469 86.269531 271.621094 86.132812 269.371094 C 86 267.125 86 264.875 86.136719 262.625 C 86.269531 260.375 86.542969 258.144531 86.949219 255.925781 C 87.355469 253.710938 87.890625 251.527344 88.5625 249.375 C 89.230469 247.222656 90.03125 245.121094 90.953125 243.066406 C 91.878906 241.011719 92.921875 239.019531 94.089844 237.089844 C 95.253906 235.164062 96.53125 233.3125 97.921875 231.535156 C 99.308594 229.761719 100.800781 228.078125 102.394531 226.484375 C 107.480469 221.195312 113.136719 216.476562 118.1875 211.167969 C 121.875 207.515625 125.082031 203.480469 127.808594 199.066406 C 152.292969 152.34375 225.144531 152.472656 250.050781 198.789062 C 253.488281 204.207031 257.589844 209.070312 262.355469 213.371094 C 271.28125 222.152344 280.71875 230.414062 285.621094 242.390625 C 299.746094 276.804688 282.316406 318.441406 242.207031 327.789062 C 238 328.742188 233.632812 328.449219 227.644531 328.851562 Z M 227.644531 328.851562 " fill-opacity="1" fill-rule="nonzero"/></g><g clip-path="url(#2b462c313a)"><path fill="#e2a9f1" d="M 106.488281 87.957031 C 105.09375 60.316406 129.535156 31.703125 158.261719 54.402344 C 182.246094 73.0625 185.476562 111.335938 170.085938 136.496094 C 159.820312 152.730469 141.65625 154.859375 127.3125 142.003906 C 115.230469 131.261719 105.773438 112.75 106.488281 87.957031 Z M 106.488281 87.957031 " fill-opacity="1" fill-rule="nonzero"/></g><g clip-path="url(#3b7864a4af)"><path fill="#e2a9f1" d="M 198.480469 103.914062 C 198.113281 84.28125 203.988281 68.453125 217.671875 56.164062 C 236.699219 39.066406 255.707031 45.734375 265.808594 64.832031 C 279.433594 91.738281 267.476562 134.070312 239.230469 147.644531 C 227.386719 153.152344 217.449219 150.433594 209.390625 140.1875 C 201.878906 130.65625 198.425781 118.679688 198.480469 103.914062 Z M 198.480469 103.914062 " fill-opacity="1" fill-rule="nonzero"/></g><g clip-path="url(#29b33e646b)"><path fill="#e2a9f1" d="M 262.886719 169.589844 C 261.566406 119.910156 330.195312 95.171875 333.5 144.6875 C 333.675781 148.335938 333.546875 151.972656 333.117188 155.601562 C 332.691406 159.226562 331.964844 162.792969 330.945312 166.300781 C 329.925781 169.808594 328.625 173.207031 327.039062 176.5 C 325.457031 179.792969 323.613281 182.929688 321.507812 185.917969 C 320.011719 188.140625 318.3125 190.191406 316.402344 192.070312 C 314.496094 193.953125 312.417969 195.625 310.171875 197.085938 C 307.929688 198.546875 305.558594 199.773438 303.070312 200.757812 C 300.578125 201.742188 298.011719 202.472656 295.375 202.941406 C 274.492188 207.292969 261.492188 189.425781 262.886719 169.589844 Z M 262.886719 169.589844 " fill-opacity="1" fill-rule="nonzero"/></g><g clip-path="url(#64d184a82b)"><path fill="#e2a9f1" d="M 113.117188 170.726562 C 113.398438 174.234375 113.125 177.695312 112.296875 181.113281 C 111.472656 184.53125 110.136719 187.738281 108.289062 190.726562 C 95.855469 212.914062 69.464844 202.609375 56.460938 186.707031 C 43.714844 172.269531 38.574219 154.933594 43.128906 136.714844 C 47.371094 119.652344 59.070312 114.675781 76.480469 119.175781 C 99.289062 125.144531 113.117188 145.125 113.117188 170.726562 Z M 113.117188 170.726562 " fill-opacity="1" fill-rule="nonzero"/></g></svg>